<?xml version="1.0" encoding="UTF-8" standalone="no"?>
<!-- Created with Inkscape (http://www.inkscape.org/) -->

<svg
   version="1.1"
   id="svg2"
   xml:space="preserve"
   width="900"
   height="900"
   viewBox="0 0 899.99998 899.99998"
   sodipodi:docname="logo.svg"
   inkscape:version="1.1.2 (0a00cf5339, 2022-02-04)"
   xmlns:inkscape="http://www.inkscape.org/namespaces/inkscape"
   xmlns:sodipodi="http://sodipodi.sourceforge.net/DTD/sodipodi-0.dtd"
   xmlns="http://www.w3.org/2000/svg"
   xmlns:svg="http://www.w3.org/2000/svg"><defs
     id="defs6"><clipPath
       clipPathUnits="userSpaceOnUse"
       id="clipPath16"><path
         d="M 861.818,1226.621 696.732,869.404 c -2.628,-5.688 1.526,-12.181 7.79,-12.181 v 0 h 247.924 c 5.338,0 9.352,4.813 8.417,10.068 v 0 c -0.517,2.907 -0.962,5.831 -1.334,8.771 v 0 c -2.583,20.379 -21.842,37.011 -42.385,37.011 v 0 H 783.361 c -2.309,0 -3.839,2.393 -2.87,4.49 v 0 l 91.836,198.608 c 1.068,2.312 4.29,2.476 5.59,0.287 v 0 l 83.206,-140.202 c 3.472,-5.85 12.072,-5.538 15.042,0.582 v 0 c 3.156,6.5 6.692,12.783 10.578,18.821 v 0 c 8.833,13.727 9.321,31.204 0.988,45.239 v 0 l -110.745,186.504 c -1.675,2.82 -4.526,4.2 -7.369,4.2 v 0 c -3.144,0 -6.278,-1.688 -7.799,-4.981"
         id="path14" /></clipPath><linearGradient
       x1="0"
       y1="0"
       x2="1"
       y2="0"
       gradientUnits="userSpaceOnUse"
       gradientTransform="matrix(181.03122,276.54462,276.54462,-181.03122,761.90088,816.62244)"
       spreadMethod="pad"
       id="linearGradient26"><stop
         style="stop-opacity:1;stop-color:#ff3ce4"
         offset="0"
         id="stop22" /><stop
         style="stop-opacity:1;stop-color:#694cf7"
         offset="1"
         id="stop24" /></linearGradient><clipPath
       clipPathUnits="userSpaceOnUse"
       id="clipPath36"><path
         d="M 866.326,1164.016 743.494,893.704 c -1.906,-4.194 1.16,-8.954 5.765,-8.954 v 0 H 957.32 c -6.076,16.218 -22.667,28.324 -40.195,28.324 v 0 H 783.359 c -2.29,0 -3.832,2.383 -2.851,4.487 v 0 l 91.841,198.592 c 1.029,2.337 4.254,2.478 5.562,0.328 v 0 l 83.194,-140.217 c 3.506,-5.842 12.106,-5.562 15.051,0.561 v 0 c 2.291,4.721 4.768,9.301 7.478,13.787 v 0 l -106.133,174.081 c -1.245,2.041 -3.325,3.036 -5.399,3.036 v 0 c -2.335,0 -4.661,-1.262 -5.776,-3.713"
         id="path34" /></clipPath><linearGradient
       x1="0"
       y1="0"
       x2="1"
       y2="0"
       gradientUnits="userSpaceOnUse"
       gradientTransform="matrix(218.86241,250.47604,250.47604,-218.86241,770.0564,862.34845)"
       spreadMethod="pad"
       id="linearGradient46"><stop
         style="stop-opacity:1;stop-color:#ff3ce4"
         offset="0"
         id="stop42" /><stop
         style="stop-opacity:1;stop-color:#694cf7"
         offset="1"
         id="stop44" /></linearGradient><clipPath
       clipPathUnits="userSpaceOnUse"
       id="clipPath56"><path
         d="m 1126.249,1244.823 c -15.107,0 -29.097,-7.965 -36.808,-20.957 v 0 l -48.026,-80.912 c -1.36,-2.291 -4.676,-2.291 -6.035,0 v 0 l -48.027,80.913 c -7.711,12.991 -21.701,20.956 -36.809,20.956 v 0 h -40.602 l 125.438,-211.291 c 1.361,-2.289 4.674,-2.289 6.035,0 v 0 l 81.121,136.627 c 1.443,2.43 5.019,2.246 6.204,-0.318 v 0 l 107.191,-231.922 c 7.002,-15.147 22.168,-24.846 38.855,-24.846 v 0 h 20.691 c 6.265,0 10.419,6.495 7.79,12.182 v 0 l -145.376,314.587 c -1.404,3.035 -4.445,4.981 -7.789,4.981 v 0 z"
         id="path54" /></clipPath><linearGradient
       x1="0"
       y1="0"
       x2="1"
       y2="0"
       gradientUnits="userSpaceOnUse"
       gradientTransform="matrix(387.60657,-264.328,-264.328,-387.60657,892.44403,1276.4703)"
       spreadMethod="pad"
       id="linearGradient66"><stop
         style="stop-opacity:1;stop-color:#7900f7"
         offset="0"
         id="stop62" /><stop
         style="stop-opacity:1;stop-color:#00baff"
         offset="1"
         id="stop64" /></linearGradient><clipPath
       clipPathUnits="userSpaceOnUse"
       id="clipPath76"><path
         d="m 909.927,1244.825 125.447,-211.306 c 1.356,-2.291 4.674,-2.291 6.029,0 v 0 l 81.138,136.663 c 1.449,2.385 5.001,2.244 6.216,-0.326 v 0 l 107.172,-231.917 c 7.011,-15.191 22.154,-24.865 38.841,-24.865 v 0 h 2.009 l -139.284,299.061 c -3.885,8.341 -15.488,9.008 -20.302,1.169 v 0 l -67.744,-110.263 c -4.492,-7.313 -15.107,-7.341 -19.639,-0.056 v 0 l -88.241,141.84 z"
         id="path74" /></clipPath><linearGradient
       x1="0"
       y1="0"
       x2="1"
       y2="0"
       gradientUnits="userSpaceOnUse"
       gradientTransform="matrix(359.84109,-290.98306,-290.98306,-359.84109,921.86938,1256.526)"
       spreadMethod="pad"
       id="linearGradient86"><stop
         style="stop-opacity:1;stop-color:#7900f7"
         offset="0"
         id="stop82" /><stop
         style="stop-opacity:1;stop-color:#00baff"
         offset="1"
         id="stop84" /></linearGradient><clipPath
       clipPathUnits="userSpaceOnUse"
       id="clipPath96"><path
         d="m 1112.873,1039.158 c -60.67,-11.08 -109.561,-60.88 -116.642,-125.247 v 0 c -8.611,-78.469 48.216,-149.305 126.686,-157.869 v 0 c 72.536,-7.982 138.568,40.003 154.92,109.31 v 0 c 1.264,5.357 -2.892,10.487 -8.396,10.487 v 0 h -18.437 c -15.107,0 -29.274,-7.857 -36.78,-20.966 v 0 c -8.674,-15.151 -21.981,-27.855 -39.042,-35.768 v 0 c -43.749,-20.244 -95.642,-1.208 -115.888,42.54 v 0 c -20.245,43.749 -1.209,95.642 42.54,115.888 v 0 c 18.547,8.579 38.571,10.107 57.017,5.69 v 0 c 6.879,-1.649 12.555,5.564 9.585,11.985 v 0 l -9.136,19.756 c -7.085,15.32 -22.376,24.885 -38.797,24.886 v 0 c -2.526,0 -5.076,-0.226 -7.63,-0.692"
         id="path94" /></clipPath><linearGradient
       x1="0"
       y1="0"
       x2="1"
       y2="0"
       gradientUnits="userSpaceOnUse"
       gradientTransform="matrix(211.98975,-205.74254,-205.74254,-211.98975,1018.0915,985.89197)"
       spreadMethod="pad"
       id="linearGradient106"><stop
         style="stop-opacity:1;stop-color:#364cf7"
         offset="0"
         id="stop102" /><stop
         style="stop-opacity:1;stop-color:#0095ff"
         offset="1"
         id="stop104" /></linearGradient><clipPath
       clipPathUnits="userSpaceOnUse"
       id="clipPath116"><path
         d="m 1022.614,898.21 c 0,-64.686 52.44,-117.172 117.174,-117.172 v 0 c 57.02,0 104.554,40.801 115.024,94.784 v 0 h -3.787 c -15.143,0 -29.305,-7.851 -36.782,-20.938 v 0 c -8.694,-15.143 -22.015,-27.857 -39.074,-35.802 v 0 c -43.747,-20.238 -95.627,-1.168 -115.865,42.579 v 0 c -20.238,43.747 -1.215,95.628 42.532,115.865 v 0 c 18.556,8.6 38.559,10.096 57.021,5.701 v 0 c 6.871,-1.634 12.527,5.563 9.582,11.966 v 0 l -8.553,18.415 c -6.544,1.168 -13.227,1.777 -20.098,1.777 v 0 c -64.734,0 -117.174,-52.441 -117.174,-117.175"
         id="path114" /></clipPath><linearGradient
       x1="0"
       y1="0"
       x2="1"
       y2="0"
       gradientUnits="userSpaceOnUse"
       gradientTransform="matrix(120.36352,-127.02703,-127.02703,-120.36352,1068.3768,956.70178)"
       spreadMethod="pad"
       id="linearGradient126"><stop
         style="stop-opacity:1;stop-color:#364cf7"
         offset="0"
         id="stop122" /><stop
         style="stop-opacity:1;stop-color:#0095ff"
         offset="1"
         id="stop124" /></linearGradient></defs><sodipodi:namedview
     id="namedview4"
     pagecolor="#505050"
     bordercolor="#ffffff"
     borderopacity="1"
     inkscape:pageshadow="0"
     inkscape:pageopacity="0"
     inkscape:pagecheckerboard="1"
     showgrid="false"
     width="2661.6667px"
     fit-margin-bottom="0"
     inkscape:zoom="0.32737499"
     inkscape:cx="1256.9683"
     inkscape:cy="1331.8061"
     inkscape:window-width="3772"
     inkscape:window-height="2123"
     inkscape:window-x="0"
     inkscape:window-y="0"
     inkscape:window-maximized="1"
     inkscape:current-layer="g8" /><g
     id="g8"
     inkscape:groupmode="layer"
     inkscape:label="AMC 06"
     transform="matrix(1.3333333,0,0,-1.3333333,0,2666.6667)"><g
       id="g975"
       transform="translate(-662.49974,662.49996)"><g
         id="g10"><g
           id="g12"
           clip-path="url(#clipPath16)"><g
             id="g18"><g
               id="g20"><path
                 d="M 861.818,1226.621 C 806.78933,1107.5487 751.76067,988.47633 696.732,869.404 c -2.55263,-17.90797 20.21749,-10.73378 31.21287,-12.181 74.83371,0 149.66742,0 224.50113,0 20.99506,13.23098 -2.89813,50.32503 -23.98345,54.18078 -28.99328,3.53806 -58.58601,0.81106 -87.83326,1.66922 -19.59119,0.27465 -39.32304,-0.54709 -58.8271,0.40667 -3.01421,8.54918 6.87204,17.94094 9.1748,26.76072 27.63372,58.99834 54.17991,118.69601 82.4912,177.25861 9.04961,-1.4331 11.15076,-15.7479 17.1999,-22.5266 23.48497,-39.5721 46.96994,-79.1443 70.45491,-118.7164 21.22668,-10.28149 35.89814,35.3868 31.21125,53.5827 -12.92257,28.699 -31.49154,54.6935 -46.85818,82.2202 -22.83002,38.4477 -45.66005,76.8954 -68.49007,115.3431 -3.11463,5.8761 -12.65071,5.4369 -15.168,-0.781 z"
                 style="fill:url(#linearGradient26);stroke:none"
                 id="path28" /></g></g></g></g><g
         id="g30"><g
           id="g32"
           clip-path="url(#clipPath36)"><g
             id="g38"><g
               id="g40"><path
                 d="m 866.326,1164.016 c -40.944,-90.104 -81.888,-180.208 -122.832,-270.312 -0.58672,-14.77575 19.54316,-7.02045 29.18787,-8.954 61.54604,0 123.09209,0 184.63813,0 -7.73428,22.37921 -32.47114,30.97078 -54.24872,28.324 -40.40308,0.2713 -80.94562,-0.54185 -121.2618,0.40522 -2.99335,8.55001 6.87842,17.93914 9.18567,26.75863 27.62105,59.00254 54.20741,118.66045 82.47308,177.25465 9.05424,-1.4006 11.14505,-15.732 17.19149,-22.4985 23.48176,-39.5767 46.96352,-79.1533 70.44528,-118.73 16.61388,-12.45123 28.74113,18.57653 13.5875,29.014 -32.39717,53.1383 -64.79433,106.2767 -97.1915,159.415 -2.34162,4.2936 -9.34846,3.9113 -11.175,-0.677 z"
                 style="fill:url(#linearGradient46);stroke:none"
                 id="path48" /></g></g></g></g><g
         id="g50"><g
           id="g52"
           clip-path="url(#clipPath56)"><g
             id="g58"><g
               id="g60"><path
                 d="m 1126.249,1244.823 c -28.793,1.1382 -40.2358,-27.2823 -52.7486,-47.8129 -11.2712,-18.3425 -21.5007,-37.5062 -33.411,-55.3448 -9.2869,1.5804 -11.3357,15.8594 -17.4619,22.7734 -14.2545,22.5822 -26.00173,46.9487 -42.15442,68.1833 -19.14824,18.3205 -46.74627,10.4911 -70.53108,12.201 41.81267,-70.4303 83.62533,-140.8607 125.438,-211.291 9.5567,-3.8936 12.0198,14.26 17.9931,20.1403 23.6649,39.1623 46.2106,79.2191 70.5744,117.8227 9.3224,-1.9329 9.8339,-16.887 15.2745,-24.3332 33.3637,-71.4878 65.6777,-143.5075 99.7045,-214.65925 12.6445,-20.86275 39.427,-21.38392 60.7804,-18.32585 9.9733,10.16202 -3.9519,22.80225 -6.9206,33.75812 -44.9651,97.30238 -89.9302,194.60478 -134.8953,291.90718 -7.2218,8.8351 -21.4476,3.5278 -31.642,4.981 z"
                 style="fill:url(#linearGradient66);stroke:none"
                 id="path68" /></g></g></g></g><g
         id="g70"><g
           id="g72"
           clip-path="url(#clipPath76)"><g
             id="g78"><g
               id="g80"><path
                 d="m 909.927,1244.825 c 41.81567,-70.4353 83.63133,-140.8707 125.447,-211.306 9.5489,-3.8927 12.0148,14.2619 17.9867,20.1406 23.6729,39.1651 46.2086,79.2461 70.592,117.839 9.3404,-1.9088 9.8423,-16.8791 15.285,-24.3225 33.3574,-71.4909 65.6732,-143.5092 99.6887,-214.667 5.0942,-15.29249 51.4936,-31.55914 31.2599,-5.27979 -44.2304,94.96859 -88.4609,189.93709 -132.6913,284.90569 -10.8949,16.7271 -24.2946,-2.427 -29.2937,-13.4663 -20.3405,-32.6002 -39.8114,-65.8164 -60.7,-98.0285 -15.8498,-10.5739 -21.9378,11.1615 -29.2393,20.9072 -25.56432,41.0925 -51.12866,82.1851 -76.693,123.2776 -10.54733,0 -21.09467,0 -31.642,0 z"
                 style="fill:url(#linearGradient86);stroke:none"
                 id="path88" /></g></g></g></g><g
         id="g90"><g
           id="g92"
           clip-path="url(#clipPath96)"><g
             id="g98"><g
               id="g100"><path
                 d="m 1112.873,1039.158 c -72.3755,-11.5418 -126.78263,-85.21589 -116.51437,-157.74633 6.94747,-70.42287 72.59797,-128.43372 143.41927,-126.23218 64.9066,-0.51564 127.8117,49.53405 138.0545,114.07109 -10.6153,12.45376 -34.384,5.96267 -48.0688,1.02129 -19.1618,-14.15215 -27.5502,-40.4148 -51.4269,-49.62761 -46.2971,-25.75427 -110.7596,2.10381 -123.7129,53.48709 -16.3204,50.24086 23.0787,107.91027 75.7566,111.12015 17.0072,-1.49279 49.9718,-5.29723 33.4676,19.8777 -7.3642,21.4678 -26.8024,38.9982 -50.975,34.0288 z"
                 style="fill:url(#linearGradient106);stroke:none"
                 id="path108" /></g></g></g></g><g
         id="g110"><g
           id="g112"
           clip-path="url(#clipPath116)"><g
             id="g118"><g
               id="g120"><path
                 d="m 1022.614,898.21 c -1.9931,-66.51984 61.673,-124.68207 127.7474,-116.70061 50.6601,3.75897 95.4981,44.33902 104.4506,94.31261 -28.9985,4.19168 -40.4179,-24.50078 -56.9691,-41.53825 -36.9149,-36.4646 -104.736,-28.44677 -132.0454,15.73612 -30.8403,43.21133 -10.2447,110.54691 39.534,129.03568 18.4063,16.439 58.239,-8.14229 63.1075,16.13745 -3.7468,17.5244 -16.5779,24.4433 -34.6826,20.0396 -60.7307,-1.9023 -112.3721,-56.22906 -111.1424,-117.0226 z"
                 style="fill:url(#linearGradient126);stroke:none"
                 id="path128" /></g></g></g></g></g></g></svg>
